TITLE ""
FILE "1Q_t_0701-0709.mp3" MP3
  TRACK 01 AUDIO
    TITLE "1Q_t_0701-0709_01"
    INDEX 01 00:00:00
  TRACK 02 AUDIO
    TITLE "1Q_t_0701-0709_02"
    INDEX 01 00:03:11
  TRACK 03 AUDIO
    TITLE "1Q_t_0701-0709_03"
    INDEX 01 00:04:18
  TRACK 04 AUDIO
    TITLE "1Q_t_0701-0709_04"
    INDEX 01 00:05:41
  TRACK 05 AUDIO
    TITLE "1Q_t_0701-0709_05"
    INDEX 01 00:06:11
  TRACK 06 AUDIO
    TITLE "1Q_t_0701-0709_06"
    INDEX 01 00:07:20
  TRACK 07 AUDIO
    TITLE "1Q_t_0701-0709_07"
    INDEX 01 00:07:67
  TRACK 08 AUDIO
    TITLE "1Q_t_0701-0709_08"
    INDEX 01 00:08:74
  TRACK 09 AUDIO
    TITLE "1Q_t_0701-0709_09"
    INDEX 01 00:09:07
  TRACK 10 AUDIO
    TITLE "1Q_t_0701-0709_10"
    INDEX 01 00:10:42
  TRACK 11 AUDIO
    TITLE "1Q_t_0701-0709_11"
    INDEX 01 00:10:48
  TRACK 12 AUDIO
    TITLE "1Q_t_0701-0709_12"
    INDEX 01 00:15:65
  TRACK 13 AUDIO
    TITLE "1Q_t_0701-0709_13"
    INDEX 01 00:16:37
  TRACK 14 AUDIO
    TITLE "1Q_t_0701-0709_14"
    INDEX 01 00:17:54
  TRACK 15 AUDIO
    TITLE "1Q_t_0701-0709_15"
    INDEX 01 00:17:64
  TRACK 16 AUDIO
    TITLE "1Q_t_0701-0709_16"
    INDEX 01 00:19:27
  TRACK 17 AUDIO
    TITLE "1Q_t_0701-0709_17"
    INDEX 01 00:19:37
  TRACK 18 AUDIO
    TITLE "1Q_t_0701-0709_18"
    INDEX 01 00:23:23
  TRACK 19 AUDIO
    TITLE "1Q_t_0701-0709_19"
    INDEX 01 00:23:70
  TRACK 20 AUDIO
    TITLE "1Q_t_0701-0709_20"
    INDEX 01 00:25:14
  TRACK 21 AUDIO
    TITLE "1Q_t_0701-0709_21"
    INDEX 01 00:25:24
  TRACK 22 AUDIO
    TITLE "1Q_t_0701-0709_22"
    INDEX 01 00:30:23
  TRACK 23 AUDIO
    TITLE "1Q_t_0701-0709_23"
    INDEX 01 00:30:31
  TRACK 24 AUDIO
    TITLE "1Q_t_0701-0709_24"
    INDEX 01 00:34:72
  TRACK 25 AUDIO
    TITLE "1Q_t_0701-0709_25"
    INDEX 01 00:35:52
  TRACK 26 AUDIO
    TITLE "1Q_t_0701-0709_26"
    INDEX 01 00:37:13
  TRACK 27 AUDIO
    TITLE "1Q_t_0701-0709_27"
    INDEX 01 00:37:23
  TRACK 28 AUDIO
    TITLE "1Q_t_0701-0709_28"
    INDEX 01 00:39:01
  TRACK 29 AUDIO
    TITLE "1Q_t_0701-0709_29"
    INDEX 01 00:39:08
  TRACK 30 AUDIO
    TITLE "1Q_t_0701-0709_30"
    INDEX 01 00:44:31
  TRACK 31 AUDIO
    TITLE "1Q_t_0701-0709_31"
    INDEX 01 00:45:03
  TRACK 32 AUDIO
    TITLE "1Q_t_0701-0709_32"
    INDEX 01 00:46:08
  TRACK 33 AUDIO
    TITLE "1Q_t_0701-0709_33"
    INDEX 01 00:46:20
  TRACK 34 AUDIO
    TITLE "1Q_t_0701-0709_34"
    INDEX 01 00:47:55
  TRACK 35 AUDIO
    TITLE "1Q_t_0701-0709_35"
    INDEX 01 00:47:63
  TRACK 36 AUDIO
    TITLE "1Q_t_0701-0709_36"
    INDEX 01 00:52:29
  TRACK 37 AUDIO
    TITLE "1Q_t_0701-0709_37"
    INDEX 01 00:52:74
  TRACK 38 AUDIO
    TITLE "1Q_t_0701-0709_38"
    INDEX 01 00:54:08
  TRACK 39 AUDIO
    TITLE "1Q_t_0701-0709_39"
    INDEX 01 00:54:16
  TRACK 40 AUDIO
    TITLE "1Q_t_0701-0709_40"
    INDEX 01 00:56:64
  TRACK 41 AUDIO
    TITLE "1Q_t_0701-0709_41"
    INDEX 01 00:56:72
  TRACK 42 AUDIO
    TITLE "1Q_t_0701-0709_42"
    INDEX 01 01:03:28
  TRACK 43 AUDIO
    TITLE "1Q_t_0701-0709_43"
    INDEX 01 01:04:01
  TRACK 44 AUDIO
    TITLE "1Q_t_0701-0709_44"
    INDEX 01 01:05:08
  TRACK 45 AUDIO
    TITLE "1Q_t_0701-0709_45"
    INDEX 01 01:05:12
  TRACK 46 AUDIO
    TITLE "1Q_t_0701-0709_46"
    INDEX 01 01:08:43
  TRACK 47 AUDIO
    TITLE "1Q_t_0701-0709_47"
    INDEX 01 01:08:51
  TRACK 48 AUDIO
    TITLE "1Q_t_0701-0709_48"
    INDEX 01 01:13:09
  TRACK 49 AUDIO
    TITLE "1Q_t_0701-0709_49"
    INDEX 01 01:13:54
  TRACK 50 AUDIO
    TITLE "1Q_t_0701-0709_50"
    INDEX 01 01:14:54
  TRACK 51 AUDIO
    TITLE "1Q_t_0701-0709_51"
    INDEX 01 01:14:64
  TRACK 52 AUDIO
    TITLE "1Q_t_0701-0709_52"
    INDEX 01 01:16:57
  TRACK 53 AUDIO
    TITLE "1Q_t_0701-0709_53"
    INDEX 01 01:16:64
  TRACK 54 AUDIO
    TITLE "1Q_t_0701-0709_54"
    INDEX 01 01:21:54
  TRACK 55 AUDIO
    TITLE "1Q_t_0701-0709_55"
    INDEX 01 01:22:28
  TRACK 56 AUDIO
    TITLE "1Q_t_0701-0709_56"
    INDEX 01 01:23:37
  TRACK 57 AUDIO
    TITLE "1Q_t_0701-0709_57"
    INDEX 01 01:23:45
  TRACK 58 AUDIO
    TITLE "1Q_t_0701-0709_58"
    INDEX 01 01:25:20
  TRACK 59 AUDIO
    TITLE "1Q_t_0701-0709_59"
    INDEX 01 01:25:28
  TRACK 60 AUDIO
    TITLE "1Q_t_0701-0709_60"
    INDEX 01 01:30:39
